<svg width="441" height="97" viewBox="0 0 441 97" fill="none" xmlns="http://www.w3.org/2000/svg">
<path d="M31.36 95V57.24L0 2.84H17.984L39.168 39.576L60.288 2.84H78.272L46.976 57.24V95H31.36ZM121.061 96.92C111.845 96.92 103.952 94.9147 97.381 90.904C90.8103 86.8507 85.7543 81.2187 82.213 74.008C78.7143 66.7973 76.965 58.4347 76.965 48.92C76.965 39.4053 78.7143 31.0427 82.213 23.832C85.7543 16.6213 90.8103 11.0107 97.381 6.99999C103.952 2.94666 111.845 0.919998 121.061 0.919998C130.277 0.919998 138.17 2.94666 144.741 6.99999C151.354 11.0107 156.41 16.6213 159.909 23.832C163.45 31.0427 165.221 39.4053 165.221 48.92C165.221 58.4347 163.45 66.7973 159.909 74.008C156.41 81.2187 151.354 86.8507 144.741 90.904C138.17 94.9147 130.277 96.92 121.061 96.92ZM121.061 82.392C127.248 82.4347 132.389 81.0693 136.485 78.296C140.624 75.5227 143.717 71.6187 145.765 66.584C147.856 61.5493 148.901 55.6613 148.901 48.92C148.901 42.1787 147.856 36.3333 145.765 31.384C143.717 26.392 140.624 22.5093 136.485 19.736C132.389 16.9627 127.248 15.5333 121.061 15.448C114.874 15.4053 109.733 16.7707 105.637 19.544C101.541 22.3173 98.4477 26.2213 96.357 31.256C94.309 36.2907 93.285 42.1787 93.285 48.92C93.285 55.6613 94.309 61.528 96.357 66.52C98.405 71.4693 101.477 75.3307 105.573 78.104C109.712 80.8773 114.874 82.3067 121.061 82.392ZM215.08 96.92C207.741 96.92 201.277 95.4267 195.688 92.44C190.141 89.4533 185.789 85.2507 182.632 79.832C179.517 74.4133 177.96 68.056 177.96 60.76V2.96799L193.576 2.84V60.376C193.576 63.832 194.152 66.9253 195.304 69.656C196.499 72.3867 198.099 74.712 200.104 76.632C202.109 78.5093 204.413 79.9387 207.016 80.92C209.619 81.9013 212.307 82.392 215.08 82.392C217.939 82.392 220.648 81.9013 223.208 80.92C225.811 79.896 228.115 78.4453 230.12 76.568C232.125 74.648 233.704 72.3227 234.856 69.592C236.008 66.8613 236.584 63.7893 236.584 60.376V2.84H252.2V60.76C252.2 68.056 250.621 74.4133 247.464 79.832C244.349 85.2507 239.997 89.4533 234.408 92.44C228.861 95.4267 222.419 96.92 215.08 96.92Z" fill="black"/>
<path d="M270.085 95V2.84H325.573V18.264H285.509V41.24H317.893V56.6H285.509V95H270.085ZM338.365 95V2.84H353.789V95H338.365ZM395.104 95V17.304H365.28V2.84H440.352V17.304H410.528V95H395.104Z" fill="#FF844B"/>
</svg>
